<?xml version="1.0" encoding="UTF-8"?>
<svg id="Camada_2" data-name="Camada 2" xmlns="http://www.w3.org/2000/svg" viewBox="0 0 261.74 248.91">
  <defs>
    <style>
      .cls-1 {
        fill: #f3f3f3;
      }
    </style>
  </defs>
  <g id="Camada_1-2" data-name="Camada 1">
    <g>
      <g>
        <path class="cls-1" d="M136.96,145.29c-3.52.01-6.37,2.88-6.35,6.4l.05,13.16c.04,12.62-3.7,22.59-11.22,29.91-7.52,7.33-18.21,11.01-32.06,11.06-25.97.09-39.01-14.21-39.11-42.91l-.04-10.94c-.01-3.52-2.88-6.37-6.4-6.35l-35.48.12C2.83,145.75-.01,148.62,0,152.14l.06,18.36c.09,26.96,6.16,46.79,18.2,59.49,12.04,12.7,29.81,19.01,53.31,18.93,14.84-.05,27.69-2.88,38.56-8.48,4.83-2.49,9.05-5.39,12.66-8.68,4.1-3.75,10.68-.92,10.7,4.64h0c.01,3.52,2.88,6.37,6.4,6.35l56.26-.19c3.52-.01,6.37-2.88,6.35-6.4l-.09-26.95c-.01-3.52-2.88-6.37-6.4-6.35l-10.62.04c-3.52.01-6.39-2.83-6.4-6.35l-.15-45c-.01-3.52-2.88-6.37-6.4-6.35l-35.48.12Z"/>
        <rect class="cls-1" x="5.81" y="50.29" width="39.58" height="71.61" rx="19.79" ry="19.79" transform="translate(-.3 .09)"/>
        <rect class="cls-1" x="120.11" y="65.85" width="71.61" height="39.58" rx="19.79" ry="19.79" transform="translate(-.29 .54)"/>
      </g>
      <g>
        <path class="cls-1" d="M237,25.49h0c3.92,4.02,3.83,10.46-.19,14.38l-21.11,20.61c-4.02,3.92-10.46,3.83-14.38-.19h0c-3.92-4.02-3.83-10.46.19-14.38l21.11-20.61c4.02-3.92,10.46-3.83,14.38.19Z"/>
        <path class="cls-1" d="M175.99,0h0c5.62.04,10.14,4.62,10.1,10.24l-.16,29.5c-.04,5.62-4.62,10.14-10.24,10.1h0c-5.62-.04-10.14-4.62-10.1-10.24l.16-29.5C165.79,4.49,170.37-.04,175.99,0Z"/>
        <path class="cls-1" d="M261.74,85.95h0c0-5.62-4.55-10.17-10.17-10.17l-29.5-.04c-5.62,0-10.17,4.55-10.17,10.17h0c0,5.62,4.55,10.17,10.17,10.17l29.5.04c5.62,0,10.17-4.55,10.17-10.17Z"/>
        <path class="cls-1" d="M237.77,147.09h0c3.92-4.02,3.83-10.46-.19-14.38l-21.11-20.61c-4.02-3.92-10.46-3.83-14.38.19h0c-3.92,4.02-3.83,10.46.19,14.38l21.11,20.61c4.02,3.92,10.46,3.83,14.38-.19Z"/>
      </g>
    </g>
  </g>
</svg>