<?xml version="1.0" encoding="UTF-8"?>
<svg id="Camada_2" data-name="Camada 2" xmlns="http://www.w3.org/2000/svg" viewBox="0 0 548.86 427.86">
  <defs>
    <style>
      .cls-1 {
        fill: #202020;
      }
    </style>
  </defs>
  <g id="Camada_1-2" data-name="Camada 1">
    <g>
      <g>
        <path class="cls-1" d="M.18,137.64v-4.86c0-3.21,2.6-5.81,5.81-5.81h.25c2.43,0,4.6-1.51,5.45-3.78L44.83,34.32c.85-2.27,3.02-3.78,5.45-3.78h17.94c2.42,0,4.59,1.5,5.44,3.77l33.42,88.89c.85,2.27,3.02,3.77,5.44,3.77h.11c3.21,0,5.81,2.6,5.81,5.81v4.86c0,3.21-2.6,5.81-5.81,5.81h-35.32c-3.21,0-5.81-2.6-5.81-5.81v-4.42c0-3.21,2.6-5.81,5.81-5.81h.65c4.02,0,6.82-3.98,5.48-7.76l-2.84-7.98c-.82-2.32-3.02-3.86-5.48-3.86h-33.72c-2.44,0-4.63,1.53-5.46,3.83l-2.9,7.98c-1.38,3.79,1.43,7.8,5.46,7.8h0c3.21,0,5.81,2.6,5.81,5.81v4.42c0,3.21-2.6,5.81-5.81,5.81H6c-3.21,0-5.81-2.6-5.81-5.81ZM50.7,93.24h14.91c4.03,0,6.83-3.99,5.47-7.78l-7.38-20.53c-1.84-5.11-9.06-5.13-10.93-.03l-7.52,20.53c-1.39,3.79,1.42,7.81,5.46,7.81Z"/>
        <path class="cls-1" d="M248.3,97.02h3.85c1.52,0,2.75,1.23,2.75,2.75v10.39c0,1.52-1.23,2.75-2.75,2.75h-33.57c-1.52,0-2.75-1.23-2.75-2.75v-10.39c0-1.52,1.23-2.75,2.75-2.75h4.89c1.52,0,2.75-1.23,2.75-2.75v-24.14c0-11.39-5.1-17.09-15.3-17.09-5.55,0-9.83,1.56-12.85,4.68-3.02,3.12-4.53,7.55-4.53,13.3v23.25c0,1.52,1.23,2.75,2.75,2.75h4.89c1.52,0,2.75,1.23,2.75,2.75v10.39c0,1.52-1.23,2.75-2.75,2.75h-34.31c-1.52,0-2.75-1.23-2.75-2.75v-10.39c0-1.52,1.23-2.75,2.75-2.75h4.74c1.52,0,2.75-1.23,2.75-2.75v-24.14c0-11.39-5.1-17.09-15.3-17.09-5.45,0-9.68,1.59-12.7,4.75-3.02,3.17-4.53,7.68-4.53,13.52v22.95c0,1.52,1.23,2.75,2.75,2.75h4.89c1.52,0,2.75,1.23,2.75,2.75v10.39c0,1.52-1.23,2.75-2.75,2.75h-33.57c-1.52,0-2.75-1.23-2.75-2.75v-10.39c0-1.52,1.23-2.75,2.75-2.75h3.85c1.52,0,2.75-1.23,2.75-2.75v-37.58c0-1.52-1.23-2.75-2.75-2.75h-3.85c-1.52,0-2.75-1.23-2.75-2.75v-10.39c0-1.52,1.23-2.75,2.75-2.75h22.13c1.52,0,2.75,1.23,2.75,2.75v.1c0,2.46,2.93,3.64,4.71,1.94,1.42-1.35,3.04-2.53,4.88-3.54,4.41-2.43,9.58-3.64,15.53-3.64,10.11,0,17.36,3.59,21.76,10.78,1.04,1.7,3.43,1.79,4.61.18,2.05-2.8,4.7-5.12,7.95-6.95,4.75-2.67,10.35-4.01,16.79-4.01,19.02,0,28.52,10.7,28.52,32.09v26.51c0,1.52,1.23,2.75,2.75,2.75Z"/>
        <path class="cls-1" d="M263.22,108.23v-6.54c0-2.58,2.1-4.68,4.68-4.68h0c2.58,0,4.68-2.1,4.68-4.68v-33.73c0-2.58-2.1-4.68-4.68-4.68h0c-2.58,0-4.68-2.1-4.68-4.68v-6.54c0-2.58,2.1-4.68,4.68-4.68h19.31c2.58,0,4.68,2.1,4.68,4.68v49.62c0,2.58,2.1,4.68,4.68,4.68h0c2.58,0,4.68,2.1,4.68,4.68v6.54c0,2.58-2.1,4.68-4.68,4.68h-28.67c-2.58,0-4.68-2.1-4.68-4.68ZM280.16,23.77c-4.26,0-7.45-1.14-9.58-3.42-2.13-2.28-3.19-5.1-3.19-8.47s1.06-6.19,3.19-8.47c2.13-2.28,5.32-3.42,9.58-3.42s7.45,1.14,9.58,3.42c2.13,2.28,3.19,5.1,3.19,8.47s-1.06,6.19-3.19,8.47c-2.13,2.28-5.33,3.42-9.58,3.42Z"/>
        <path class="cls-1" d="M337.81,149.31c-12.58,0-23.01-2.59-31.27-7.78-.98-.62-1.34-1.87-.82-2.9l5.61-11.01c.57-1.11,1.94-1.54,3.03-.93,2.77,1.54,5.65,2.79,8.65,3.75,3.71,1.19,8.34,1.78,13.89,1.78,8.12,0,14.36-2.08,18.72-6.24,4.36-4.16,6.54-10.15,6.54-17.98h0c0-1.97-2.37-2.95-3.77-1.56-1.79,1.79-3.88,3.32-6.26,4.61-4.31,2.33-9.39,3.49-15.23,3.49-7.13,0-13.37-1.66-18.72-4.98-5.35-3.32-9.51-7.92-12.48-13.82-2.97-5.89-4.46-12.7-4.46-20.43s1.53-15.01,4.61-20.95c3.07-5.94,7.3-10.55,12.7-13.82,5.4-3.27,11.51-4.9,18.35-4.9,6.14,0,11.54,1.34,16.19,4.01,2.42,1.39,4.5,3.05,6.22,4.98,1.36,1.53,3.88.6,3.88-1.45v-2.95c0-1.22.99-2.21,2.21-2.21h23.21c1.22,0,2.21.99,2.21,2.21v11.47c0,1.22-.99,2.21-2.21,2.21h-4.93c-1.22,0-2.21.99-2.21,2.21v51.27c0,13.77-3.64,24.19-10.92,31.27-7.28,7.08-18.2,10.62-32.76,10.62ZM342.11,97.91c6.44,0,11.51-2.03,15.23-6.09,3.71-4.06,5.57-9.51,5.57-16.34s-1.86-12.28-5.57-16.34c-3.71-4.06-8.79-6.09-15.23-6.09s-11.66,2.08-15.38,6.24c-3.71,4.16-5.57,9.56-5.57,16.19s1.86,12.16,5.57,16.27c3.71,4.11,8.84,6.17,15.38,6.17Z"/>
        <path class="cls-1" d="M431.97,114.7c-8.22,0-15.43-1.66-21.62-4.98-6.19-3.32-10.99-7.97-14.41-13.97-3.42-5.99-5.13-12.95-5.13-20.87s1.71-14.88,5.13-20.87c3.42-5.99,8.22-10.65,14.41-13.97,6.19-3.32,13.39-4.98,21.62-4.98s15.43,1.66,21.62,4.98c6.19,3.32,10.99,7.97,14.41,13.97,3.42,5.99,5.13,12.95,5.13,20.87s-1.71,14.88-5.13,20.87c-3.42,5.99-8.22,10.65-14.41,13.97-6.19,3.32-13.4,4.98-21.62,4.98ZM431.97,97.31c6.54,0,11.71-2.05,15.53-6.17,3.81-4.11,5.72-9.53,5.72-16.27s-1.91-12.16-5.72-16.27c-3.81-4.11-8.99-6.17-15.53-6.17s-11.59,2.06-15.45,6.17c-3.86,4.11-5.79,9.53-5.79,16.27s1.93,12.16,5.79,16.27c3.86,4.11,9.01,6.17,15.45,6.17Z"/>
        <path class="cls-1" d="M519.78,114.7c-5.25,0-10.05-.84-14.41-2.53-2.62-1.01-4.86-2.29-6.73-3.84-1.29-1.07-3.23-.22-3.23,1.46v.59c0,1.07-.87,1.94-1.94,1.94h-10.53c-1.07,0-1.94-.87-1.94-1.94v-22.12c0-1.07.87-1.94,1.94-1.94h12.62v1.04c0,3.86,1.63,7.03,4.9,9.51,3.27,2.48,8.07,3.71,14.41,3.71,3.86,0,7.08-.62,9.66-1.86,2.57-1.24,3.86-3.24,3.86-6.02,0-2.57-1.31-4.48-3.94-5.72-2.63-1.24-6.96-2.45-13-3.64l-7.58-1.49c-8.52-1.68-14.56-4.61-18.12-8.77-3.57-4.16-5.35-9.01-5.35-14.56,0-7.33,2.65-13.07,7.95-17.23,5.3-4.16,12.01-6.24,20.13-6.24,5.35,0,9.95.84,13.82,2.53,2.17.95,4.05,2.05,5.63,3.31,1.27,1.01,3.14.1,3.14-1.52h0c0-1.07.87-1.94,1.94-1.94h10.23c1.07,0,1.94.87,1.94,1.94v21.82c0,1.07-.87,1.94-1.94,1.94h-12.47v-1.34c0-3.96-1.46-7.06-4.38-9.29-2.92-2.23-7.06-3.34-12.41-3.34-3.86,0-7.13.65-9.81,1.93-2.67,1.29-4.01,3.37-4.01,6.24,0,2.38,1.24,4.14,3.71,5.27,2.47,1.14,7.28,2.4,14.41,3.79l5.94,1.19c8.52,1.69,14.63,4.58,18.35,8.69,3.71,4.11,5.57,9.24,5.57,15.38,0,7.73-2.58,13.5-7.73,17.31-5.15,3.81-12.03,5.72-20.65,5.72Z"/>
      </g>
      <g>
        <path class="cls-1" d="M431.41,226.32c-5.2,0-9.76-1.15-13.68-3.45-3.92-2.3-6.98-5.53-9.17-9.68-2.2-4.15-3.3-9.01-3.3-14.57s1.1-10.2,3.3-14.31c2.2-4.12,5.26-7.35,9.17-9.68,3.92-2.33,8.48-3.5,13.68-3.5,4.47,0,8.33.89,11.59,2.68,1.28.7,2.44,1.5,3.47,2.4,1.46,1.27,3.84.28,3.84-1.59v-18.12c0-1.19-1.03-2.15-2.3-2.15h-4.2c-1.27,0-2.3-.96-2.3-2.15v-6.71c0-1.19,1.03-2.15,2.3-2.15h18.48c1.27,0,2.3.96,2.3,2.15v66.03c0,1.19,1.03,2.15,2.3,2.15h2.33c1.27,0,2.3.96,2.3,2.15v6.71c0,1.19-1.03,2.15-2.3,2.15h-15.84c-1.27,0-2.3-.96-2.3-2.15h0c0-1.88-2.41-2.88-3.85-1.58-1.09.98-2.31,1.84-3.68,2.6-3.33,1.85-7.38,2.78-12.14,2.78ZM435.48,214.27c4.76,0,8.52-1.41,11.26-4.22,2.75-2.81,4.12-6.59,4.12-11.33s-1.37-8.51-4.12-11.33c-2.75-2.81-6.5-4.22-11.26-4.22s-8.53,1.41-11.32,4.22c-2.78,2.82-4.18,6.59-4.18,11.33s1.41,8.51,4.23,11.33c2.82,2.82,6.57,4.22,11.26,4.22Z"/>
        <path class="cls-1" d="M504.81,226.32c-5.2,0-9.78-1.09-13.74-3.27-3.96-2.18-7.03-5.24-9.23-9.18-2.2-3.94-3.3-8.54-3.3-13.82s1.1-9.67,3.3-13.57c2.2-3.91,5.27-6.97,9.23-9.18,3.96-2.21,8.53-3.32,13.74-3.32,4.47,0,8.33.88,11.59,2.64,1.28.69,2.43,1.47,3.44,2.34,1.41,1.21,3.76.3,3.76-1.44h0c0-1.09,1-1.98,2.23-1.98h16.75c1.23,0,2.23.89,2.23,1.98v6.49c0,1.09-1,1.98-2.23,1.98h-2.47c-1.23,0-2.23.89-2.23,1.98v24.36c0,1.09,1,1.98,2.23,1.98h2.47c1.23,0,2.23.89,2.23,1.98v6.49c0,1.09-1,1.98-2.23,1.98h-15.98c-1.23,0-2.23-.89-2.23-1.98v-.25c0-1.77-2.38-2.61-3.81-1.38-1.11.96-2.37,1.8-3.77,2.54-3.37,1.76-7.36,2.64-11.98,2.64ZM508.77,214.89c4.76,0,8.52-1.33,11.26-4,2.75-2.67,4.12-6.25,4.12-10.74s-1.37-8.07-4.12-10.74c-2.75-2.67-6.5-4-11.26-4s-8.53,1.34-11.32,4c-2.78,2.67-4.18,6.25-4.18,10.74s1.41,8.07,4.23,10.74c2.82,2.67,6.57,4,11.26,4Z"/>
      </g>
      <g>
        <path class="cls-1" d="M162.01,345.53h11.43c6.91,0,12.51,4.89,12.51,10.93v52.61c0,6.03-5.6,10.93-12.51,10.93H12.51c-6.91,0-12.51-4.89-12.51-10.93v-8.09c0-6.03,5.6-10.93,12.51-10.93h0c6.91,0,12.51-4.89,12.51-10.93v-155.03c0-6.03-5.6-10.93-12.51-10.93h0c-6.91,0-12.51-4.89-12.51-10.93v-8.09c0-6.03,5.6-10.93,12.51-10.93h77.84c6.91,0,12.51,4.89,12.51,10.93v8.09c0,6.03-5.6,10.93-12.51,10.93h-8.03c-6.91,0-12.51,4.89-12.51,10.93v153.95c0,6.03,5.6,10.93,12.51,10.93h54.67c6.91,0,12.51-4.89,12.51-10.93v-21.58c0-6.03,5.6-10.93,12.51-10.93Z"/>
        <path class="cls-1" d="M530.49,361.93h5.87c6.91,0,12.51,5.6,12.51,12.51v33.05c0,6.91-5.6,12.51-12.51,12.51h-117.06c-6.91,0-12.51-5.6-12.51-12.51v-11.04c0-3.13,1.17-6.15,3.29-8.46l66.74-72.74c7.36-8.02,1.67-20.97-9.22-20.97h-16.8c-6.91,0-12.51,5.6-12.51,12.51h0c0,6.91-5.6,12.51-12.51,12.51h-5.87c-6.91,0-12.51-5.6-12.51-12.51v-29.96c0-6.91,5.6-12.51,12.51-12.51h111.81c6.91,0,12.51,5.6,12.51,12.51v11.37c0,3.12-1.16,6.12-3.26,8.42l-66.01,72.47c-7.32,8.03-1.62,20.93,9.25,20.93h21.26c6.91,0,12.51-5.6,12.51-12.51v-3.09c0-6.91,5.6-12.51,12.51-12.51Z"/>
        <g>
          <path class="cls-1" d="M328.45,342.8c-2.9,0-5.25,2.35-5.25,5.25v10.83c0,10.38-3.11,18.57-9.31,24.57-6.21,6.01-15.01,9.01-26.4,9.01-21.37,0-32.05-11.8-32.05-35.41v-9c0-2.9-2.35-5.25-5.25-5.25h-29.19c-2.9,0-5.25,2.35-5.25,5.25v15.1c0,22.18,4.93,38.51,14.8,48.99,9.87,10.48,24.47,15.72,43.8,15.72,12.21,0,22.79-2.29,31.75-6.87,3.98-2.04,7.46-4.41,10.44-7.11,3.39-3.07,8.79-.73,8.79,3.84h0c0,2.9,2.35,5.25,5.25,5.25h46.29c2.9,0,5.25-2.35,5.25-5.25v-22.17c0-2.9-2.35-5.25-5.25-5.25h-8.74c-2.9,0-5.25-2.35-5.25-5.25v-37.02c0-2.9-2.35-5.25-5.25-5.25h-29.19Z"/>
          <rect class="cls-1" x="220.72" y="264.33" width="32.56" height="58.91" rx="16.28" ry="16.28"/>
          <rect class="cls-1" x="314.75" y="277.5" width="58.91" height="32.56" rx="16.28" ry="16.28"/>
        </g>
      </g>
      <g>
        <path class="cls-1" d="M143.66,190.42h0c6.18-6.02,16.07-5.88,22.08.29l31.64,32.41c6.02,6.18,5.88,16.07-.29,22.08h0c-6.18,6.02-16.07,5.88-22.08-.29l-31.64-32.41c-6.02-6.18-5.88-16.07.29-22.08Z"/>
        <path class="cls-1" d="M236.48,152.43h0c-8.62,0-15.62,6.99-15.62,15.62l-.06,45.3c0,8.62,6.99,15.62,15.62,15.62h0c8.62,0,15.62-6.99,15.62-15.62l.06-45.3c0-8.62-6.99-15.62-15.62-15.62Z"/>
        <path class="cls-1" d="M330.35,189.24h0c-6.18-6.02-16.07-5.88-22.08.29l-31.64,32.41c-6.02,6.18-5.88,16.07.29,22.08h0c6.18,6.02,16.07,5.88,22.08-.29l31.64-32.41c6.02-6.18,5.88-16.07-.29-22.08Z"/>
      </g>
    </g>
  </g>
</svg>