<?xml version="1.0" encoding="UTF-8"?>
<svg id="Camada_2" data-name="Camada 2" xmlns="http://www.w3.org/2000/svg" viewBox="0 0 1263.79 248.39">
  <defs>
    <style>
      .cls-1 {
        fill: #f3f3f3;
      }
    </style>
  </defs>
  <g id="Camada_1-2" data-name="Camada 1">
    <g>
      <g>
        <path class="cls-1" d="M0,200.76v-5.49c0-3.62,2.94-6.56,6.56-6.56h.29c2.74,0,5.19-1.7,6.15-4.27l37.38-100.25c.96-2.57,3.41-4.27,6.15-4.27h20.24c2.73,0,5.18,1.69,6.14,4.25l37.7,100.28c.96,2.56,3.41,4.25,6.14,4.25h.13c3.62,0,6.56,2.94,6.56,6.56v5.49c0,3.62-2.94,6.56-6.56,6.56h-39.85c-3.62,0-6.56-2.94-6.56-6.56v-4.98c0-3.62,2.94-6.56,6.56-6.56h.74c4.53,0,7.7-4.49,6.18-8.76l-3.21-9.01c-.93-2.61-3.4-4.36-6.18-4.36h-38.05c-2.76,0-5.22,1.73-6.16,4.32l-3.28,9.01c-1.56,4.28,1.61,8.8,6.16,8.8h0c3.62,0,6.56,2.94,6.56,6.56v4.98c0,3.62-2.94,6.56-6.56,6.56H6.56c-3.62,0-6.56-2.94-6.56-6.56ZM56.99,150.67h16.82c4.54,0,7.71-4.5,6.17-8.78l-8.33-23.16c-2.07-5.77-10.22-5.79-12.33-.04l-8.49,23.16c-1.57,4.28,1.6,8.82,6.16,8.82Z"/>
        <path class="cls-1" d="M293.58,189.39h4.35c1.72,0,3.11,1.39,3.11,3.11v11.72c0,1.72-1.39,3.11-3.11,3.11h-37.87c-1.72,0-3.11-1.39-3.11-3.11v-11.72c0-1.72,1.39-3.11,3.11-3.11h5.52c1.72,0,3.11-1.39,3.11-3.11v-27.23c0-12.85-5.76-19.28-17.26-19.28-6.26,0-11.09,1.76-14.5,5.28-3.41,3.52-5.11,8.52-5.11,15v26.23c0,1.72,1.39,3.11,3.11,3.11h5.52c1.72,0,3.11,1.39,3.11,3.11v11.72c0,1.72-1.39,3.11-3.11,3.11h-38.71c-1.72,0-3.11-1.39-3.11-3.11v-11.72c0-1.72,1.39-3.11,3.11-3.11h5.35c1.72,0,3.11-1.39,3.11-3.11v-27.23c0-12.85-5.76-19.28-17.26-19.28-6.15,0-10.92,1.79-14.33,5.36-3.41,3.58-5.11,8.66-5.11,15.25v25.89c0,1.72,1.39,3.11,3.11,3.11h5.52c1.72,0,3.11,1.39,3.11,3.11v11.72c0,1.72-1.39,3.11-3.11,3.11h-37.87c-1.72,0-3.11-1.39-3.11-3.11v-11.72c0-1.72,1.39-3.11,3.11-3.11h4.35c1.72,0,3.11-1.39,3.11-3.11v-42.4c0-1.72-1.39-3.11-3.11-3.11h-4.35c-1.72,0-3.11-1.39-3.11-3.11v-11.72c0-1.72,1.39-3.11,3.11-3.11h24.96c1.72,0,3.11,1.39,3.11,3.11v.12c0,2.77,3.3,4.1,5.31,2.19,1.6-1.52,3.43-2.85,5.5-3.99,4.97-2.74,10.81-4.11,17.52-4.11,11.4,0,19.59,4.05,24.55,12.16,1.17,1.92,3.87,2.02,5.2.21,2.31-3.16,5.3-5.78,8.97-7.84,5.36-3.02,11.68-4.53,18.94-4.53,21.45,0,32.18,12.07,32.18,36.2v29.91c0,1.72,1.39,3.11,3.11,3.11Z"/>
        <path class="cls-1" d="M310.42,202.04v-7.38c0-2.92,2.36-5.28,5.28-5.28h0c2.92,0,5.28-2.36,5.28-5.28v-38.05c0-2.92-2.36-5.28-5.28-5.28h0c-2.92,0-5.28-2.36-5.28-5.28v-7.37c0-2.92,2.36-5.28,5.28-5.28h21.79c2.92,0,5.28,2.36,5.28,5.28v55.98c0,2.92,2.36,5.28,5.28,5.28h0c2.92,0,5.28,2.36,5.28,5.28v7.38c0,2.92-2.36,5.28-5.28,5.28h-32.35c-2.92,0-5.28-2.36-5.28-5.28ZM329.53,106.75c-4.81,0-8.41-1.28-10.81-3.85-2.4-2.57-3.6-5.75-3.6-9.55s1.2-6.98,3.6-9.55c2.4-2.57,6.01-3.86,10.81-3.86s8.41,1.29,10.81,3.86c2.4,2.57,3.6,5.76,3.6,9.55s-1.2,6.98-3.6,9.55c-2.4,2.57-6.01,3.85-10.81,3.85Z"/>
        <path class="cls-1" d="M404.95,248.39c-14.2,0-25.95-2.93-35.27-8.78-1.11-.69-1.51-2.11-.92-3.27l6.33-12.42c.64-1.26,2.19-1.73,3.42-1.05,3.13,1.74,6.38,3.15,9.76,4.23,4.19,1.34,9.41,2.01,15.67,2.01,9.16,0,16.2-2.35,21.12-7.04,4.92-4.69,7.37-11.46,7.37-20.28h0c0-2.22-2.68-3.33-4.25-1.76-2.02,2.02-4.38,3.75-7.06,5.2-4.86,2.62-10.59,3.94-17.18,3.94-8.05,0-15.09-1.87-21.12-5.61-6.03-3.74-10.73-8.94-14.08-15.59-3.35-6.65-5.03-14.33-5.03-23.05s1.73-16.93,5.2-23.63c3.46-6.7,8.24-11.9,14.33-15.59,6.09-3.69,12.99-5.53,20.7-5.53,6.93,0,13.02,1.51,18.27,4.53,2.73,1.57,5.08,3.44,7.02,5.62,1.54,1.72,4.38.67,4.38-1.64v-3.33c0-1.38,1.12-2.5,2.5-2.5h26.18c1.38,0,2.5,1.12,2.5,2.5v12.94c0,1.38-1.12,2.5-2.5,2.5h-5.56c-1.38,0-2.5,1.12-2.5,2.5v57.84c0,15.53-4.11,27.29-12.32,35.28-8.21,7.99-20.53,11.98-36.96,11.98ZM409.81,190.39c7.26,0,12.99-2.29,17.18-6.87,4.19-4.58,6.29-10.73,6.29-18.44s-2.1-13.85-6.29-18.44c-4.19-4.58-9.92-6.87-17.18-6.87s-13.16,2.35-17.35,7.04c-4.19,4.69-6.29,10.79-6.29,18.27s2.09,13.72,6.29,18.35c4.19,4.64,9.97,6.96,17.35,6.96Z"/>
        <path class="cls-1" d="M517.92,210c-9.28,0-17.41-1.87-24.39-5.61-6.99-3.74-12.4-8.99-16.26-15.76-3.86-6.76-5.78-14.61-5.78-23.55s1.93-16.79,5.78-23.55c3.85-6.76,9.27-12.01,16.26-15.76,6.98-3.74,15.11-5.61,24.39-5.61s17.4,1.87,24.39,5.61c6.98,3.74,12.4,9,16.26,15.76,3.86,6.76,5.78,14.61,5.78,23.55s-1.93,16.79-5.78,23.55c-3.85,6.76-9.28,12.01-16.26,15.76-6.99,3.74-15.11,5.61-24.39,5.61ZM517.92,190.39c7.38,0,13.21-2.32,17.52-6.96,4.3-4.64,6.45-10.75,6.45-18.35s-2.15-13.72-6.45-18.35c-4.3-4.64-10.14-6.96-17.52-6.96s-13.07,2.32-17.43,6.96c-4.36,4.64-6.54,10.76-6.54,18.35s2.18,13.72,6.54,18.35c4.36,4.64,10.17,6.96,17.43,6.96Z"/>
        <path class="cls-1" d="M621.67,210c-5.92,0-11.34-.95-16.26-2.85-2.95-1.14-5.48-2.58-7.59-4.33-1.45-1.2-3.64-.24-3.64,1.64v.66c0,1.21-.98,2.19-2.19,2.19h-11.88c-1.21,0-2.19-.98-2.19-2.19v-24.95c0-1.21.98-2.19,2.19-2.19h14.23v1.17c0,4.36,1.84,7.94,5.53,10.73,3.69,2.79,9.11,4.19,16.26,4.19,4.36,0,7.99-.7,10.89-2.1,2.9-1.4,4.36-3.66,4.36-6.79,0-2.9-1.48-5.05-4.44-6.45-2.96-1.4-7.85-2.77-14.67-4.11l-8.55-1.68c-9.61-1.9-16.43-5.2-20.45-9.89-4.02-4.69-6.03-10.17-6.03-16.43,0-8.27,2.99-14.75,8.97-19.44,5.98-4.69,13.55-7.04,22.71-7.04,6.03,0,11.23.95,15.59,2.85,2.45,1.07,4.57,2.32,6.35,3.74,1.43,1.14,3.54.11,3.54-1.72h0c0-1.21.98-2.19,2.19-2.19h11.54c1.21,0,2.19.98,2.19,2.19v24.62c0,1.21-.98,2.19-2.19,2.19h-14.07v-1.51c0-4.47-1.65-7.96-4.94-10.48-3.3-2.51-7.96-3.77-14-3.77-4.36,0-8.05.73-11.06,2.18-3.02,1.45-4.53,3.8-4.53,7.04,0,2.68,1.4,4.67,4.19,5.95,2.79,1.29,8.21,2.71,16.26,4.27l6.7,1.34c9.61,1.9,16.51,5.17,20.7,9.81,4.19,4.64,6.29,10.42,6.29,17.35,0,8.72-2.91,15.23-8.72,19.53-5.81,4.3-13.58,6.45-23.3,6.45Z"/>
        <path class="cls-1" d="M743.36,210c-7.94,0-14.89-1.87-20.87-5.61-5.98-3.74-10.64-8.99-14-15.76-3.35-6.76-5.03-14.67-5.03-23.72s1.68-16.59,5.03-23.3c3.35-6.7,8.02-11.96,14-15.76,5.98-3.8,12.93-5.7,20.87-5.7,6.81,0,12.71,1.45,17.68,4.36,1.96,1.15,3.72,2.45,5.29,3.9,2.23,2.07,5.85.45,5.85-2.59v-29.49c0-1.93-1.57-3.5-3.5-3.5h-6.4c-1.93,0-3.5-1.57-3.5-3.5v-10.93c0-1.93,1.57-3.5,3.5-3.5h28.19c1.93,0,3.5,1.57,3.5,3.5v107.47c0,1.93,1.57,3.5,3.5,3.5h3.55c1.93,0,3.5,1.57,3.5,3.5v10.93c0,1.93-1.57,3.5-3.5,3.5h-24.17c-1.93,0-3.5-1.57-3.5-3.5h0c0-3.05-3.67-4.69-5.87-2.58-1.66,1.59-3.53,3-5.61,4.24-5.09,3.02-11.26,4.53-18.52,4.53ZM749.56,190.39c7.26,0,12.99-2.29,17.18-6.87,4.19-4.58,6.29-10.73,6.29-18.44s-2.1-13.85-6.29-18.44c-4.19-4.58-9.92-6.87-17.18-6.87s-13.02,2.29-17.26,6.87c-4.25,4.58-6.37,10.73-6.37,18.44s2.15,13.86,6.45,18.44c4.3,4.58,10.03,6.87,17.18,6.87Z"/>
        <path class="cls-1" d="M855.32,210c-7.94,0-14.92-1.87-20.95-5.61-6.03-3.74-10.73-8.99-14.08-15.76-3.35-6.76-5.03-14.67-5.03-23.72s1.68-16.59,5.03-23.3c3.35-6.7,8.04-11.96,14.08-15.76,6.03-3.8,13.02-5.7,20.95-5.7,6.81,0,12.71,1.51,17.68,4.53,1.95,1.18,3.7,2.52,5.25,4.02,2.15,2.07,5.73.52,5.73-2.47h0c0-1.88,1.52-3.4,3.4-3.4h25.55c1.88,0,3.4,1.52,3.4,3.4v11.14c0,1.88-1.52,3.4-3.4,3.4h-3.76c-1.88,0-3.4,1.52-3.4,3.4v41.81c0,1.88,1.52,3.4,3.4,3.4h3.76c1.88,0,3.4,1.52,3.4,3.4v11.14c0,1.88-1.52,3.4-3.4,3.4h-24.38c-1.88,0-3.4-1.52-3.4-3.4v-.42c0-3.04-3.63-4.49-5.81-2.37-1.7,1.64-3.61,3.1-5.75,4.35-5.14,3.02-11.23,4.53-18.27,4.53ZM861.36,190.39c7.26,0,12.99-2.29,17.18-6.87,4.19-4.58,6.29-10.73,6.29-18.44s-2.1-13.85-6.29-18.44c-4.19-4.58-9.92-6.87-17.18-6.87s-13.02,2.29-17.26,6.87c-4.25,4.58-6.37,10.73-6.37,18.44s2.15,13.86,6.45,18.44c4.3,4.58,10.03,6.87,17.18,6.87Z"/>
        <path class="cls-1" d="M1053.86,161.06h6.2c3.75,0,6.79,3.04,6.79,6.79v32.68c0,3.75-3.04,6.79-6.79,6.79h-87.33c-3.75,0-6.79-3.04-6.79-6.79v-5.03c0-3.75,3.04-6.79,6.79-6.79h0c3.75,0,6.79-3.04,6.79-6.79v-76.6c0-3.75-3.04-6.79-6.79-6.79h0c-3.75,0-6.79-3.04-6.79-6.79v-5.03c0-3.75,3.04-6.79,6.79-6.79h42.24c3.75,0,6.79,3.04,6.79,6.79v5.03c0,3.75-3.04,6.79-6.79,6.79h-4.36c-3.75,0-6.79,3.04-6.79,6.79v75.93c0,3.75,3.04,6.79,6.79,6.79h29.67c3.75,0,6.79-3.04,6.79-6.79v-13.41c0-3.75,3.04-6.79,6.79-6.79Z"/>
        <path class="cls-1" d="M1253.82,175.81h3.18c3.75,0,6.79,3.04,6.79,6.79v17.93c0,3.75-3.04,6.79-6.79,6.79h-63.52c-3.75,0-6.79-3.04-6.79-6.79v-5.99c0-1.7.64-3.34,1.79-4.59l36.22-39.47c3.99-4.35.91-11.38-5-11.38h-9.11c-3.75,0-6.79,3.04-6.79,6.79h0c0,3.75-3.04,6.79-6.79,6.79h-3.18c-3.75,0-6.79-3.04-6.79-6.79v-16.26c0-3.75,3.04-6.79,6.79-6.79h60.68c3.75,0,6.79,3.04,6.79,6.79v6.17c0,1.69-.63,3.32-1.77,4.57l-35.82,39.33c-3.97,4.36-.88,11.36,5.02,11.36h11.54c3.75,0,6.79-3.04,6.79-6.79v-1.68c0-3.75,3.04-6.79,6.79-6.79Z"/>
        <g>
          <path class="cls-1" d="M1144.18,165.43c-1.57,0-2.85,1.27-2.85,2.85v5.88c0,5.63-1.68,10.08-5.05,13.33-3.37,3.26-8.14,4.89-14.33,4.89-11.59,0-17.39-6.4-17.39-19.22v-4.88c0-1.57-1.27-2.85-2.85-2.85h-15.84c-1.57,0-2.85,1.27-2.85,2.85v8.2c0,12.04,2.68,20.9,8.03,26.59,5.36,5.69,13.28,8.53,23.77,8.53,6.63,0,12.37-1.24,17.23-3.73,2.16-1.11,4.05-2.39,5.66-3.86,1.84-1.67,4.77-.4,4.77,2.09h0c0,1.57,1.27,2.85,2.85,2.85h25.12c1.57,0,2.85-1.27,2.85-2.85v-12.03c0-1.57-1.27-2.85-2.85-2.85h-4.74c-1.57,0-2.85-1.27-2.85-2.85v-20.09c0-1.57-1.27-2.85-2.85-2.85h-15.84Z"/>
          <rect class="cls-1" x="1085.72" y="122.84" width="17.67" height="31.97" rx="8.83" ry="8.83"/>
          <rect class="cls-1" x="1136.75" y="129.99" width="31.97" height="17.67" rx="8.83" ry="8.83"/>
        </g>
      </g>
      <g>
        <path class="cls-1" d="M739.48.8h0c6.01-2.35,12.78.62,15.13,6.62l12.37,31.53c2.35,6.01-.62,12.78-6.62,15.13h0c-6.01,2.35-12.78-.62-15.13-6.62l-12.37-31.53c-2.35-6.01.62-12.78,6.62-15.13Z"/>
        <path class="cls-1" d="M685.27,53.95h0c2.55-5.92,9.42-8.66,15.34-6.11l31.13,13.34c5.92,2.55,8.66,9.42,6.11,15.34h0c-2.55,5.92-9.42,8.66-15.34,6.11l-31.13-13.34c-5.92-2.55-8.66-9.42-6.11-15.34Z"/>
        <path class="cls-1" d="M814.47,1.63h0c-5.94-2.51-12.79.27-15.3,6.22l-13.21,31.19c-2.51,5.94.27,12.79,6.22,15.3h0c5.94,2.51,12.79-.27,15.3-6.22l13.21-31.19c2.51-5.94-.27-12.79-6.22-15.3Z"/>
        <path class="cls-1" d="M868.42,54.29h0c-2.51-5.94-9.36-8.73-15.3-6.22l-31.22,13.13c-5.94,2.51-8.73,9.36-6.22,15.3h0c2.51,5.94,9.36,8.73,15.3,6.22l31.22-13.13c5.94-2.51,8.73-9.36,6.22-15.3Z"/>
      </g>
    </g>
  </g>
</svg>